<svg xmlns="http://www.w3.org/2000/svg" viewBox="0 0 1485.78 551.8"><defs><style>.cls-1{fill:#22b573;stroke:#ed2b4b;stroke-width:2px;}.cls-1,.cls-2{stroke-miterlimit:10;}.cls-2{fill:#ed2b4b;stroke:#22b573;}</style></defs><g id="Layer_2" data-name="Layer 2"><g id="Black"><path class="cls-1" d="M1,114.34l8.77-11.21A373,373,0,0,1,51.21,70.47H197v59.47H95.57V370.76L195.5,499.45v8.78q-6.33,7.78-10.72,12.43t-9.75,9.5a54.44,54.44,0,0,1-9.75,7.32,35.87,35.87,0,0,1-3.66,2.92c-1.79,1.29-3.74,2.68-5.85,4.14s-4.14,2.76-6.09,3.9-3.25,1.87-3.9,2.2l-6.34-4.39q-14.15-16.57-25.59-29.74T88,486.53q-14.39-16.81-29-33.88t-28.27-32.9q-13.66-15.84-23.4-27.06a18.58,18.58,0,0,1-4.15-4.87Q1,384.42,1,383.92Z"/><path class="cls-1" d="M292.28,168.92H306q17,0,29.09,5a68.69,68.69,0,0,1,19.83,12,44.6,44.6,0,0,1,11.3,15.2q3.51,8.16,3.52,14.08V446.85l-71.89,86.72L220,448.34V216a34.05,34.05,0,0,1,5.38-18.53,49.81,49.81,0,0,1,14.82-14.82,79.23,79.23,0,0,1,22.79-10A109.61,109.61,0,0,1,292.28,168.92Zm-.74,47.8V440.93l9.63-3.34V216.72Z"/><path class="cls-1" d="M390.48,165.58,487.57,271.2q1.85-2.22,8.15-9.27t18.16-20q11.86-13,29.83-32.24t43.55-46V466.87q0,.74-6.67,7.78t-15.94,16.49l-19.08,19.45q-9.83,10-16.12,16.31-1.49.74-5.75,3.33c-2.84,1.73-4.76,2.84-5.74,3.34V335.68L486.46,359l-26.31-23V533.57a33.16,33.16,0,0,1-3.71-1.67c-1.73-.87-3.52-1.85-5.37-3s-3.59-2.17-5.19-3.15a8.27,8.27,0,0,1-2.78-2.23l-47.8-50a28.6,28.6,0,0,1-3.15-3.89,11.58,11.58,0,0,1-1.67-2.78Z"/><path class="cls-1" d="M737,304.92l19.64,17.79V533.57l-70.41-66.7V322.71h-9.26V466.87l-69.3,66.7V168.92H717.7a9.17,9.17,0,0,1,2.41,1.3l4.63,3q2.6,1.66,4.82,3.34a13.13,13.13,0,0,1,3,2.77q2.6,2.61,6.68,7.42t8,9.63q3.9,4.82,6.86,8.71a26.16,26.16,0,0,1,3,4.26v77.08Zm-60-30.76,9.26-1.85v-56.7l-9.26,1.85Z"/><path class="cls-1" d="M855.93,466.87V322.71h-9.27V466.87l-69.3,66.7V206c0-1.49,1.61-4.2,4.82-8.16a161.06,161.06,0,0,1,11.12-12.23,149.34,149.34,0,0,1,12.6-11.3q6.3-5,9.63-5h71.9q4.44,0,11.11,5.74a137.94,137.94,0,0,1,12.79,12.6q6.1,6.87,10.56,13c3,4.08,4.45,6.37,4.45,6.86V533.57Zm-9.27-192.71,9.27-1.85v-56.7l-9.27,1.85Z"/><path class="cls-1" d="M946.34,168.92H1032a88.73,88.73,0,0,1,20.94,2.22,66.24,66.24,0,0,1,18.71,8.15,33.19,33.19,0,0,1,7.41,6.12q4.08,4.26,7.79,8.71t6.3,8a22.14,22.14,0,0,1,2.59,3.89V446.85l-72.26,86.72-77.09-85.23Zm70.42,47.8V440.93l10.37-3.34V216.72Z"/><path class="cls-1" d="M1116.07,202.27l5.56-6.67q15.93-14.08,32.61-26.68H1265v45.21H1188v63.74H1265a63.71,63.71,0,0,1-5,8.15q-3.15,4.46-6.67,8.71t-6.67,8c-2.1,2.47-3.65,4.32-4.63,5.56a29.5,29.5,0,0,1-3.71,4.63c-1.73,1.85-3.52,3.65-5.37,5.37s-4.14,3.84-6.86,6.3H1188v72.27l76,99.31v6.67q-4.82,5.19-8.34,8.53c-2.35,2.22-4.81,4.44-7.41,6.67a76.31,76.31,0,0,1-7.22,5.55,27.15,27.15,0,0,1-2.78,2.23c-1.37,1-2.85,2-4.45,3.15s-3.15,2.09-4.63,3-2.48,1.42-3,1.67l-4.82-3.34q-10.74-12.6-19.45-22.6t-19.64-22.79q-10.93-12.79-22-25.76t-21.5-25q-10.38-12-17.78-20.57a14.17,14.17,0,0,1-3.15-3.7,13.44,13.44,0,0,1-1.67-3Z"/><path class="cls-1" d="M1484.29,214.28V325.91q-11.7,20-28.76,48T1419,432.18q-19.5,30.22-39.49,60.2T1342,546.25l-6.34,4.39c-.65-.33-1.87-1.06-3.66-2.2s-3.65-2.36-5.6-3.65-3.9-2.68-5.85-4.15a44,44,0,0,1-3.9-3.16,37.39,37.39,0,0,1-9-7.07q-5.11-5.13-10.24-10.48t-11.94-13.17V498q33.63-57.51,64.35-112.61t58.5-109.68H1288.81V115.32q12.18-12.67,23.4-24.86A85,85,0,0,1,1339,71h145.76v60h-101.4v83.36Z"/><path class="cls-2" d="M331.43,23V4.05h20V112.48q-10-11.36-20-22.37V48.79l-4.14-2V90.11L309,111.93V1.19Z"/><path class="cls-2" d="M409.88,4.05h3.93a21,21,0,0,1,8.33,1.49,19.39,19.39,0,0,1,5.68,3.58,13.24,13.24,0,0,1,3.24,4.52,11.24,11.24,0,0,1,1,4.18V86.69l-20.6,25.79L389.18,87.13V18a10.42,10.42,0,0,1,1.54-5.51A14.62,14.62,0,0,1,395,8.13a22.48,22.48,0,0,1,6.53-3A30.37,30.37,0,0,1,409.88,4.05Zm-.21,14.21V84.93l2.76-1V18.26Z"/><path class="cls-2" d="M492.25,23V4.05h20V112.48q-10-11.36-20-22.37V48.79l-4.14-2V90.11l-18.26,21.82V1.19Z"/><path class="cls-2" d="M550,36.45h25.16a18.48,18.48,0,0,1-2.34,3.69q-1.8,2.37-3.77,4.68c-1.31,1.54-2.47,2.88-3.5,4s-1.5,1.64-1.43,1.49H550Z"/><path class="cls-2" d="M613,14l1.7-2.21q4.56-4.18,9.23-7.71h31.74V17.49H633.54v19h22.08a22.08,22.08,0,0,1-1.38,2.42c-.57.88-1.15,1.76-1.75,2.64s-1.19,1.68-1.75,2.37-1,1.23-1.28,1.6a21.86,21.86,0,0,1-1.75,1.87c-.81.81-1.54,1.49-2.17,2s-1,.87-1.07.94H631.42V90.66L613,112.48Z"/><path class="cls-2" d="M715.6,98.26V4.05h20.48V97.93a10,10,0,0,1-1.75,5.62,17,17,0,0,1-4.62,4.63,24.45,24.45,0,0,1-6.47,3.14,23.92,23.92,0,0,1-7.32,1.16h-4a18.9,18.9,0,0,1-6.26-1.16,23.8,23.8,0,0,1-6-3.14,19.63,19.63,0,0,1-4.57-4.52,8.87,8.87,0,0,1-1.8-5.18V4.05h19.42V98.26Z"/><path class="cls-2" d="M796.27,23V4.05h20V112.48q-10-11.36-20-22.37V48.79l-4.14-2V90.11l-18.26,21.82V1.19Z"/><path class="cls-2" d="M870.9,112.15a31.23,31.23,0,0,1-2.44-2.26q-1.61-1.61-3.46-3.75c-1.23-1.43-2.51-3-3.82-4.57s-2.49-3.18-3.55-4.69A37.48,37.48,0,0,1,855,92.7a7.14,7.14,0,0,1-1-3V15.4L865,4.05h31.74v13a14.27,14.27,0,0,0-1.86,1.65l-3.13,3.15q-1.8,1.81-3.87,4t-4.14,4.13c-1.38,1.33-2.69,2.52-3.93,3.59a21.55,21.55,0,0,1-3.24,2.37V17.05h-1.91V44.82l12.32-8.92h9.76v76.58l-13.8-12.9Zm3.29-63.47V87.57h3.5V48.68Z"/><path class="cls-2" d="M934.06,4.05h20.06V112.48c-.57-.59-1.22-1.22-2-1.88s-1.37-1.25-1.86-1.76c-3.12-3.09-5.72-5.78-7.8-8.1s-3.76-4.24-5-5.78-2.13-2.72-2.66-3.53a8.51,8.51,0,0,1-.79-1.32Z"/><path class="cls-2" d="M1029.06,44.49l5.73,5.07v37l-20.8,25.9L992,87.13V4.05h31.52a3.4,3.4,0,0,1,.75.33,11.27,11.27,0,0,1,1.32.83c.46.33.9.66,1.33,1a3.93,3.93,0,0,1,.85.82c.49.52,1.13,1.25,1.91,2.21s1.54,1.93,2.28,2.92l2,2.64a7.73,7.73,0,0,1,.84,1.27V39Zm-17.19-9.15,2.65-.55V17.93l-2.65.55Zm.21,49.59,2.44-1V49.78h-2.65v.11h.21Z"/><path class="cls-2" d="M1072.48,58.7V4.05h20.59V55.73l29.3,45.51v2c-1,1-1.86,1.87-2.6,2.53s-1.51,1.34-2.28,2a21.51,21.51,0,0,1-2.13,1.71,5.48,5.48,0,0,1-.85.66c-.42.29-.84.61-1.27.94s-.83.62-1.22.88a5.18,5.18,0,0,0-.69.5l-1.49-1q-4.35-6.06-7.8-10.79t-7.64-10.58l-8.23-11.46q-4-5.62-7.48-10.36T1073.43,61a8.79,8.79,0,0,1-.58-1.27A6.18,6.18,0,0,1,1072.48,58.7Z"/><path class="cls-2" d="M1145.09,14l1.59-2q4.56-4.19,9.34-7.93h31.74V17.49h-22.08v19h22.08a20.14,20.14,0,0,1-1.43,2.42c-.61.88-1.24,1.75-1.91,2.59l-1.92,2.37q-.9,1.1-1.32,1.65a9.51,9.51,0,0,1-1.06,1.38c-.5.55-1,1.08-1.54,1.6s-1.19,1.14-2,1.87h-10.93V71.82l21.76,29.53v2c-.92,1-1.72,1.87-2.39,2.53s-1.38,1.33-2.12,2a21.23,21.23,0,0,1-2.07,1.65,6.73,6.73,0,0,1-.8.66c-.39.29-.81.61-1.27.94s-.9.62-1.33.88-.71.42-.85.5l-1.38-1q-3.07-3.74-5.57-6.72T1164,98q-3.12-3.81-6.31-7.66l-6.16-7.44-5.09-6.12a6.06,6.06,0,0,1-1.38-2Z"/></g></g></svg>