<svg xmlns="http://www.w3.org/2000/svg" width="58.132" height="45" viewBox="0 0 58.132 45"><defs><style>.a{fill:#5865f2;}</style></defs><path class="a" d="M49.243,3.769A47.346,47.346,0,0,0,37.25,0a35.2,35.2,0,0,0-1.536,3.19,44.037,44.037,0,0,0-13.292,0A34.094,34.094,0,0,0,20.868,0a47.188,47.188,0,0,0-12,3.778A50.3,50.3,0,0,0,.247,37.458,47.951,47.951,0,0,0,14.956,45a36.59,36.59,0,0,0,3.15-5.189,30.968,30.968,0,0,1-4.961-2.414c.416-.308.823-.631,1.216-.962a33.9,33.9,0,0,0,29.409,0c.4.332.8.654,1.216.962a30.886,30.886,0,0,1-4.97,2.419A36.407,36.407,0,0,0,43.167,45a47.853,47.853,0,0,0,14.718-7.542A50.248,50.248,0,0,0,49.243,3.769ZM19.409,30.677c-2.871,0-5.226-2.681-5.226-5.945s2.3-5.95,5.226-5.95,5.276,2.681,5.226,5.95C24.64,28,22.331,30.677,19.409,30.677Zm19.313,0c-2.871,0-5.226-2.681-5.226-5.945s2.3-5.95,5.226-5.95,5.276,2.681,5.226,5.95C43.949,28,41.644,30.677,38.723,30.677Z" transform="translate(0)"/></svg>