<svg xmlns="http://www.w3.org/2000/svg" width="27.808" height="27.809" viewBox="0 0 27.808 27.809"><path d="M19.524,0H8.284A8.294,8.294,0,0,0,0,8.284v11.24a8.294,8.294,0,0,0,8.284,8.284h11.24a8.294,8.294,0,0,0,8.284-8.284V8.284A8.294,8.294,0,0,0,19.524,0Zm5.487,19.524a5.487,5.487,0,0,1-5.487,5.487H8.284A5.487,5.487,0,0,1,2.8,19.524V8.284A5.487,5.487,0,0,1,8.284,2.8h11.24a5.487,5.487,0,0,1,5.487,5.487v11.24Z" fill="#fff"/><path d="M140.192,133a7.192,7.192,0,1,0,7.192,7.192A7.2,7.2,0,0,0,140.192,133Zm0,11.587a4.395,4.395,0,1,1,4.395-4.395A4.395,4.395,0,0,1,140.192,144.587Z" transform="translate(-126.288 -126.288)" fill="#fff"/><ellipse cx="1.723" cy="1.723" rx="1.723" ry="1.723" transform="translate(19.387 5.043)" fill="#fff"/></svg>