<svg xmlns="http://www.w3.org/2000/svg" width="34.976" height="29" viewBox="0 0 34.976 29"><path d="M.674,42.988c1.478-.18,2.976.014,4.453-.229a10.031,10.031,0,0,0,2.095-.631,24.43,24.43,0,0,1-4.557-3.753.84.84,0,0,1,.59-1.415A6.976,6.976,0,0,0,5,36.821a23.49,23.49,0,0,1-3.448-6.035.831.831,0,0,1,1.02-1.02,5.659,5.659,0,0,0,1,.291A12.66,12.66,0,0,1,2.9,22.323a.835.835,0,0,1,1.387-.368c3.316,3.26,7.506,4.828,11.987,5.577a7.371,7.371,0,0,1,4.641-7.395,6.61,6.61,0,0,1,7.152,1.72,10.626,10.626,0,0,1,3.732-1.1.774.774,0,0,1,.86,1.124c-.43.721-.839,1.491-1.29,2.227a17.561,17.561,0,0,1,2.8-.555.81.81,0,0,1,.569,1.373c-1.1.881-2.2,1.887-3.371,2.692-.035,7.79-2.31,14.325-9.268,18.757C16.3,50.077,5.523,49.453.48,44.41H.473a.513.513,0,0,1-.382-.4.556.556,0,0,1,.2-.791A.593.593,0,0,1,.674,42.988Z" transform="translate(0 -19.743)" fill="#fff"/></svg>