<svg xmlns="http://www.w3.org/2000/svg" width="37.463" height="29" viewBox="0 0 37.463 29"><path d="M31.735,2.429A30.512,30.512,0,0,0,24.006,0a22.681,22.681,0,0,0-.99,2.056,28.379,28.379,0,0,0-8.566,0,21.972,21.972,0,0,0-1-2.056A30.41,30.41,0,0,0,5.713,2.435,32.414,32.414,0,0,0,.159,24.14,30.9,30.9,0,0,0,9.638,29a23.58,23.58,0,0,0,2.03-3.344,19.957,19.957,0,0,1-3.2-1.556c.268-.2.53-.406.784-.62a21.845,21.845,0,0,0,18.953,0c.256.214.518.421.784.62a19.9,19.9,0,0,1-3.2,1.559A23.463,23.463,0,0,0,27.819,29,30.839,30.839,0,0,0,37.3,24.14,32.382,32.382,0,0,0,31.735,2.429ZM12.508,19.77A3.636,3.636,0,0,1,9.14,15.939,3.617,3.617,0,0,1,12.508,12.1a3.594,3.594,0,0,1,3.368,3.834A3.613,3.613,0,0,1,12.508,19.77Zm12.446,0a3.636,3.636,0,0,1-3.368-3.831A3.617,3.617,0,0,1,24.955,12.1a3.594,3.594,0,0,1,3.368,3.834A3.615,3.615,0,0,1,24.955,19.77Z" transform="translate(0)" fill="#fff"/></svg>