<svg xmlns="http://www.w3.org/2000/svg" width="38.423" height="27.041" viewBox="0 0 38.423 27.041"><path d="M36.925,48.238c-1.387-1.649-3.948-2.321-8.838-2.321H10.335c-5,0-7.606.716-8.988,2.471C0,50.1,0,52.621,0,56.111v6.652c0,6.761,1.6,10.194,10.335,10.194H28.087c4.241,0,6.591-.593,8.111-2.048,1.559-1.492,2.224-3.928,2.224-8.146V56.111C38.423,52.431,38.319,49.894,36.925,48.238ZM24.668,60.356l-8.061,4.213a1.239,1.239,0,0,1-1.814-1.1v-8.4a1.239,1.239,0,0,1,1.811-1.1l8.061,4.186a1.239,1.239,0,0,1,0,2.2Z" transform="translate(0 -45.917)" fill="#fff"/></svg>