<svg xmlns="http://www.w3.org/2000/svg" width="189.777" height="145.979" viewBox="0 0 189.777 145.979"><g transform="translate(0 -52.552)"><g transform="translate(0 52.552)"><path d="M145.764,52.552q.244,6.056.487,12.111h-7.857q.243-6.056.486-12.111H119.76q-19.219,72.99-38.44,145.979h51.7q.243-6.056.487-12.111h17.64q.245,6.056.487,12.111h51.7q-19.219-72.99-38.44-145.979Zm-8.1,30.245q4.657,0,9.315,0,.676,16.839,1.353,33.678H136.311Q136.99,99.637,137.664,82.8Zm-3.434,85.488q.676-16.838,1.353-33.677H149.06q.677,16.838,1.353,33.677Z" transform="translate(-47.433 -52.552)" fill="#22b573"/><path d="M302.817,52.552h-6.509q24.353,72.99,48.7,145.979h17.6Q332.715,125.54,302.817,52.552Z" transform="translate(-172.833 -52.552)" fill="#22b573"/><path d="M59.793,52.552Q29.9,125.542,0,198.531H17.6Q41.95,125.541,66.3,52.552Z" transform="translate(0 -52.552)" fill="#22b573"/></g></g></svg>