<svg xmlns="http://www.w3.org/2000/svg" width="54.273" height="45" viewBox="0 0 54.273 45"><defs><style>.a{fill:#3fa9f5;}</style></defs><path class="a" d="M1.046,55.812c2.293-.28,4.618.022,6.911-.355a15.565,15.565,0,0,0,3.251-.98,37.908,37.908,0,0,1-7.072-5.823,1.3,1.3,0,0,1,.915-2.2,10.826,10.826,0,0,0,2.712-.215,36.45,36.45,0,0,1-5.35-9.365A1.29,1.29,0,0,1,4,35.3a8.781,8.781,0,0,0,1.55.452,19.644,19.644,0,0,1-1.044-12,1.3,1.3,0,0,1,2.153-.57c5.145,5.059,11.647,7.492,18.6,8.654-.614-4.758,2.766-9.817,7.2-11.474,3.681-1.367,8.622-.43,11.1,2.669a16.488,16.488,0,0,1,5.791-1.712,1.2,1.2,0,0,1,1.335,1.744c-.667,1.12-1.3,2.314-2,3.455a27.25,27.25,0,0,1,4.349-.861,1.257,1.257,0,0,1,.883,2.131C52.2,29.15,50.5,30.71,48.677,31.959,48.623,44.047,45.092,54.187,34.3,61.065c-9,5.748-25.726,4.78-33.551-3.046H.734a.8.8,0,0,1-.592-.624.863.863,0,0,1,.312-1.227A.92.92,0,0,1,1.046,55.812Z" transform="translate(0 -19.743)"/></svg>